<?xml version="1.0" encoding="UTF-8"?>
<svg width="903.18" height="886.72" version="1.1" viewBox="0 0 238.97 234.61" xmlns="http://www.w3.org/2000/svg" xmlns:cc="http://creativecommons.org/ns#" xmlns:dc="http://purl.org/dc/elements/1.1/" xmlns:rdf="http://www.w3.org/1999/02/22-rdf-syntax-ns#">
 <metadata>
  <rdf:RDF>
   <cc:Work rdf:about="">
    <dc:format>image/svg+xml</dc:format>
    <dc:type rdf:resource="http://purl.org/dc/dcmitype/StillImage"/>
    <dc:title/>
   </cc:Work>
  </rdf:RDF>
 </metadata>
 <g transform="translate(9.7445 .65162)">
  <path d="m133.48-0.65162-1.431 1.0732-0.7155 2.862-6.7972 7.5127-4.6507 8.5859c-1.5938 0.52324-2.603 1.9417-2.862 3.5775l-11.09 1.2872-4.8374 0.09194-3.4916-4.0713-9.881-13.078-5.2095-6.4861-5.9765 1.3308-16.396 5.9006c0 7.8265 0.71549 15.438 0.71549 23.254 0 2.8541 0.91869 6.8008-2.1465 8.2282l0.35775 0.71549-3.2197 2.1465-7.1553 4.4722-9.6588-1.6102v-1.0732h-3.5775l0.35774-0.71549-12.012-3.5438-3.7292-1.4646h-1.0732l-5.724 8.5859-2.862 2.5042-2.862 4.293-1.0732 1.7887c-0.17304 2.4155-0.94821 4.7011 2.1465 5.7239 0.19923 2.6237 4.9782 9.5357 7.5127 10.375 0.24928 1.6013 1.2747 3.4086 2.862 3.9352v1.7887l2.862 2.1465 1.3652 3.5363-2.1941 6.5414-2.0331 7.8096c-1.6533 1e-3 -7.9936 1.1655-8.2282 2.862l-8.2282 1.7887v1.0732l-11.09 2.862-1.0732 1.0732v15.741c0 2.018-0.49373 4.9072 0.51286 6.7442 1.0691 1.9512 5.3761 2.4162 7.3576 3.0934 6.8014 2.3246 15.338 6.16 22.538 6.6187l2.862 12.521h1.0732l-4.6507 9.3014-3.9352 3.9352v1.7887l-2.862 2.1465v1.7887c-1.4038 0.46614-1.6942 1.4567-1.7887 2.862-2.3624 0.77953-3.9076 4.0958-3.9352 6.4394l4.3236 5.8309 5.3226 6.9728 4.0695 4.1842 6.345-1.5136 22.241-7.297 7.4247 4.3438v1.0732l4.6507 1.7887c1.671 7.1109 0.71549 15.213 0.71549 22.538 0 2.3998-0.88542 7.0583 0.79706 8.9962 2.6577 3.0605 9.4735 3.6844 13.155 4.884 2.8713 0.93515 7.0923 2.8777 10.017 1.8606l4.4436-6.931 8.001-11.314 3.654-5.7243h11.448v-1.0732h4.6507l3.9352 6.7972 5.7239 5.7239v1.431l2.862 2.5042v1.431c1.4721 0 4.2504 4.6811 4.6507 6.0817l10.732-2.1465-0.35774-0.71549 12.521-3.9352v-28.977l0.7155-3.2197c1.0224-0.0748 1.431-0.0622 1.431-1.0732 3.8272 0 6.2702-4.8353 8.9437-6.4394 1.5194-0.91154 7.297 1.5895 8.9437 2.5042 1.4757 0.81996 6.0506 0.4826 5.724 1.7887l9.5568 2.4312 5.7601 1.3838 3.6565-3.8293 7.2014-10.214 2.3776-4.4704-2.7947-5.6932-2.862-2.1465c-0.36061-4.748-6.4226-8.0697-7.8704-12.521l-0.71549 0.35775-1.7887-2.1465c-0.19569-2.3407-2.041-3.9198 0-6.0817l1.7887-8.9437 0.71549 0.35774c0.19998-2.6234 2.6935-3.2584 5.0084-3.5775l-0.35775-0.7155 8.9437-2.1465-0.35775-0.71549 8.5859-2.1465-0.35775-0.71549 5.7239-1.0732-0.35774-0.71549h1.7887l0.94517-7.8704-0.94517-16.099c-8.3713-0.26581-16.196-6.4316-24.685-6.7972l0.35775-0.7155-5.0084-1.0732c-0.64216-4.5076-4.0908-9.1361-4.2318-13.636-0.0515-1.6406 1.6811-3.2898 2.5693-4.538 2.3719-3.3331 5.4352-10.518 9.1751-12.235 0.29085-1.9057 2.2255-4.8024 3.9352-5.7239 0.10196-1.4038 1.392-2.4752 0.89437-3.9055-1.5837-4.552-6.5342-10.735-9.8878-14.121-1.0546-1.0647-2.3794-3.4676-3.9152-3.7563-4.1735-0.78454-10.343 3.3975-14.31 4.5015-4.0493 1.1273-8.2246 2.4967-12.144 3.9256-1.4235 0.51873-3.9778 1.2382-4.283-0.95411l-2.1465-1.7887c-1.5458 0-4.093-2.2302-3.9352-2.862l-1.7887-1.0732c-3.8054-0.58098-2.862-4.9752-2.862-7.8704v-17.172c0-1.6743 0.6511-5.1069-0.47151-6.4778-0.81101-0.99021-2.9629-1.4474-4.1237-1.9246-3.5242-1.4487-7.4465-2.902-11.158-3.6876-1.9207-0.40644-4.6868-0.45067-6.0692-1.8622h-0.7155m-61.89 27.546v0.35775h-1.431l1.431-0.35775m19.676 0v0.35775h-19.318l6.4394-0.35775h12.879m38.994 0c-0.20534 1.0274 6.2774 0.78339 6.0817 0l1.7887 0.35775 5.0084 3.1005 1.0732 2.2657-0.35775 0.35775-0.71549-0.71549-1.0732 2.1465 0.71549-0.35775c-1.6539 2.2159-3.7381 0.37885-5.7239-0.35775v0.71549l-1.431-0.35775c-0.69725-1.579-4.3434-2.1111-4.6507 0l-1.0732-0.35775-0.7155 1.0732 0.7155 1.7887-0.7155-1.0732h-0.35774l1.431 2.1465c0.73446 2.4062 9.4091 4.6686 11.806 4.6507l0.71549 1.431-0.35775-0.71549h0.35775l0.35775 1.7887 1.0732-0.35775 0.71549 2.1465h-0.35775l-0.35774-1.431h-0.35775l1.431 1.7887v1.431h-0.35775v-1.0732h-0.35775l0.35775 6.0817-1.0732-0.35775-0.35775 2.862-1.431 1.0732 0.35774-0.71549h-0.35774l-3.2197 1.7887 0.71549 1.0732-1.7887 0.35775-2.862 0.35775v-0.35775l2.1465-0.35775v-0.35775l-4.6507 0.35775 0.35775 0.71549-2.862-0.35775-2.1465-0.71549 1.0732-0.35775v-0.35775l-3.5775-0.35775v-0.35775l0.7155-0.35775-1.7887-0.71549 0.35775 0.71549h-0.35775c-0.45362-0.96592-0.71084-1.3562-1.7887-1.0732l-0.35774-0.35775 0.71549-0.71549c-2.2631-0.31231-1.4467-2.4416-0.71549-1.7887l2.1465-3.9352h0.35775l0.35775 0.71549v-0.71549l2.5042 1.7887-1.0732-1.0732v-0.35775l1.431 0.71549-0.35775 1.0732h1.7887v0.35775l-0.71549 0.35775h2.1465v0.35775l-0.71549 0.35775 1.7887 0.35775-0.35775-0.71549h1.0732l-0.71549 1.0732 1.7887-0.71549-0.35774 1.0732 1.7887-1.0732 1.0732-0.35775 1.0732 0.71549v-1.0732c2.5429 0 1.05-5.221-2.1465-4.293-1.1366-2.0696-5.2668-2.9149-7.5127-2.862 0-1.2925-1.754-1.5186-2.862-1.431l-0.35775-0.35775-0.35774-2.1465-1.0732 0.35775v-0.71549l0.35774-1.7887-1.0732 0.35775c0.76486-1.9962 0.76486-3.37 0-5.3662l1.0732 0.35775 0.35775-1.7887-0.71549 0.35775v-0.35775l0.71549-1.431 0.71549 0.71549 5.0084-4.6507h1.0732m-60.459 0.35775v31.482h-0.71549v-22.18c0-2.7815-0.75306-6.8498 0.71549-9.3014m21.465 0.35775-0.36776 5.1503-3.9252 0.57361h-10.732v6.7972h9.6592l3.5674 0.57347 0.36776 5.1505h-13.594l0.71549 6.7972-0.35775-6.4394h0.35775v5.7239c3.9753 0 10.978-1.372 14.615 0.21572 1.5015 0.65575 1.8102 5.5215 0.55272 6.5174-1.2618 0.99919-4.3445 0.42178-5.866 0.42178h-16.099v-31.482h21.107m36.49 0-0.35775 0.35775 0.35775-0.35775m1.431 0 0.35775 0.35775-0.35775-0.35775m7.8704 0 0.35774 0.35775-0.35774-0.35775m2.5042 0-0.35774 0.35775 0.35774-0.35775m-13.237 0.83473c0.27654 0 0.0572 0.17812-0.11913 0.11927l0.11913-0.11927m14.668 0c0.27654 0 0.0572 0.17812-0.11913 0.11927l0.11913-0.11927m-15.383 0.59626-0.35775 0.35775 0.35775-0.35775m16.814 0.11924 0.11913 0.11927c-0.17637 0.05885-0.39566-0.11927-0.11913-0.11927m2.3851 1.908-0.11949 0.23847 0.11949-0.23847m-21.346 0.47698 0.35775 0.35775-0.35775-0.35775m10.375 1.431v0.35775h-1.431l1.431-0.35775m-41.856 0.35775-4.293 0.71549h-10.732v5.7239c-3.7882-9.0281 10.108-5.5265 15.025-6.4394m44.599 0.11913 0.23826 0.11949-0.23826-0.11949m1.9079 0.95411 0.35775 0.71549h-0.71549l0.35774-0.71549m3.5775 0.71549-0.35775 0.35775 0.35775-0.35775m-1.431 0.83462c0.27654 0 0.0572 0.17816-0.11913 0.11949l0.11913-0.11949m-9.3014 2.5042 0.11913 0.11949c-0.17637 0.05867-0.39566-0.11949-0.11913-0.11949m2.5042 0.59636v0.35775h-1.0732l1.0732-0.35775m1.431 0.35775 1.0732 0.35775v0.35775l-1.431-0.35775 0.35774-0.35775m-45.076 0.35775 0.35775 6.0817h-0.35775v-6.0817m47.938 0.35775v0.71549h-0.7155v-0.71549h0.7155m1.7887 1.0732 1.0732 0.35775v0.35775l-1.431-0.35775 0.35775-0.35775m-16.099 0.35775-0.35775 0.35775 0.35775-0.35775m0.71549 0.71549v0.71549h0.71549l-0.71549-0.71549m16.814 0.35775 0.35775 0.35775-0.35775-0.35775m-15.025 1.5501 0.11913 0.11949c-0.17637 0.05867-0.39567-0.11949-0.11913-0.11949m17.172 0.59636 0.35775 0.35775-0.35775-0.35775m-14.668 0.47688c0.27654 0 0.0572 0.17816-0.11913 0.11949l0.11913-0.11949m2.862 0.59636-0.35775 0.71549h-0.35774l-0.35775-0.71549h1.0732m1.7887 0.83462c0.27654 0 0.0572 0.17816-0.11913 0.11949l0.11913-0.11949m3.2197 1.3119-0.35775 0.35775 0.35775-0.35775m-11.448 0.35775-0.35774 0.35775 0.35774-0.35775m59.386 0.35775v0.35775h-22.538l7.1549-0.35775h15.383m-22.896 0.35775v6.0817l8.5859 0.35775c-1.9465-1.4746-5.8502-0.71549-8.2282-0.71549v-5.3662h16.456l6.2237 0.36776 0.57347 4.9984c-1.8996 0-6.5886-0.85-8.0124 0.57347-1.255 1.2553-0.57346 4.9394-0.57346 6.5815v18.961l-5.866-0.36776-0.57347-6.4294v-18.245c-1.7866 0-7.342 0.91583-8.5219-0.57347-0.70369-0.88828-0.44289-2.6538-0.49154-3.7191-0.0437-0.95089 4e-3 -1.661 0.4275-2.5046m-23.611 0.35775v1.431h-0.35775l0.35775-1.431m-92.299 1.431v0.35775h-11.09v31.482h-0.7155v-23.611c0-1.6678-0.84034-6.6866 0.57347-7.8064 2.0406-1.6159 8.6696-0.42178 11.232-0.42178m5.7239 0.35775v0.35775h-1.0732l1.0732-0.35775m71.072 0.23862-0.11949 0.23826 0.11949-0.23826m-63.917 5.4853-0.71549-0.35775v0.35775l0.71549 10.375h-1.431l0.7155 0.71549v0.35775l-1.0732-0.35775v1.7887l-3.2197 1.0732 0.35775 0.71549v0.35775h-0.35775v-0.71549h-0.35775l1.0732 2.5042h0.35775l-0.35775-1.0732h0.35775l0.71549 1.431-0.71549-0.35775v0.35775l1.431 1.0732 1.0732 1.431-0.71549-0.35775v0.35775l1.431 0.71549v0.35775l-0.7155 0.35775h1.431v0.71549l-0.71549-0.35775v0.35775l1.0732 0.35775 1.431 3.9352c-1.7458 0-7.092 0.88936-7.5127-1.0732h-1.431v-0.35775l0.71549 0.35775v-0.35775l-1.0732-2.1465-0.71549 0.71549-0.71549-1.431h0.35774l0.7155 0.71549-1.0732-2.1465-0.7155 0.71549-0.71549-1.431 0.71549 0.35775v-0.35775l-1.431-0.71549v-0.35775l0.71549 0.35775v-0.35775l-1.431-0.35775-0.35775-2.862h-3.5775v0.35775h1.7887v0.35775l-2.5042-0.35775-0.35775 9.6592-6.7972 0.71549v-31.482c7.5341 0 18.806-1.9726 23.611 5.3662m86.456-5.1276-0.11949 0.23826 0.11949-0.23826m-91.106 0.11913v0.35775h-1.0732l1.0732-0.35775m1.0732 0.35775 0.35775 0.71549h-0.71549l0.35774-0.71549m21.823 0.35775v0.35775h14.668v5.7239h0.35775v-6.0817h-15.025m44.361 0.35775 0.7155 1.431v-1.431h-0.7155m14.548 0.11913 0.23826 0.11949-0.23826-0.11949m8.705 0.59636-0.35774 0.35775 0.35774-0.35775m41.141 1.431v0.71549h-8.2282v-0.71549h8.2282m-43.287 0.71549 0.35775 0.35775-0.35775-0.35775m-101.24 2.1465h0.35775c1.7959-1.3605 5.4073-0.85895 7.5127-0.35775v0.35775h-7.1549c0 2.3779 0.75914 6.2817-0.71549 8.2282v0.35775l6.7972 0.35775c-0.25079-1.2532 1.3412-1.4299 1.0732-0.35775l2.5042-1.0732-0.71549-1.0732 1.0732 0.35775c0.25614-0.77559 0.46292-1.0843-0.35775-1.0732 0.76093-1.4628 0.76093-2.4724 0-3.9352 1.5079 0-0.42357-1.8095-1.0732-2.1762-1.6152-0.9119-8.8574-1.6839-9.3014 0.38744m9.3014 0 1.0732 1.0732-1.0732-1.0732m8.4668 0.23862-0.11949 0.23826 0.11949-0.23826m68.091-0.23862-0.35775 0.35775 0.35775-0.35775m13.594 0-0.35774 0.35775 0.35774-0.35775m-10.017 0.71549v0.35775h1.7887l-1.7887-0.35775m-15.383 7.1549v1.0732c1.9529 0.13702 5.09 2.0202 5.724 3.9352l0.71549-0.35775c3.9477 7.7581 12.511 3.1829 19.351 5.7526 1.8671 0.70154 5.9515 1.7097 6.4072 3.9066l6.4394 5.0084 2.1465 3.2197v2.1465h0.35775l0.35774-0.71549 1.431 5.7239 6.0817 1.7887 2.8022 1.9676 4.3527 4.8296c2.0055 0.30158 3.3414 2.7736 3.5775 4.6507h1.0732v1.7887h1.0732l1.6907 6.1425v12.042l-5.6259 12.224-6.7972 5.0084c-0.47902 1.4353-1.4206 1.6918-2.862 1.7887-0.3184 2.5647-6.9321 2.862-8.9437 2.862-0.35989 2.4094-5.8971 0.17672-7.4397 1.363-1.8578 1.4285-2.7346 4.6736-4.1803 6.5307-1.7601 2.2602-4.1391 4.5888-6.36 6.3962-1.2378 1.0074-2.7632 1.3848-3.4848 2.882l-10.765 3.5635-14.635 0.0139-3.2197-1.7887-6.4394-1.7887c-1.8084-3.3557-7.449-4.5334-8.5859-8.5859l-11.443 1.0346-14.315-3.8966v-1.0732c-4.8214-0.32376-7.5116-5.514-11.448-7.5127v-1.7887c-2.8748-0.58635-5.0031-6.7525-5.9425-9.222-4.2554-11.186-3.5077-25.022 4.3427-34.642 2.223-2.7246 5.0449-5.3927 7.761-7.6418 1.0758-0.89079 3.2906-1.3827 3.498-2.872l6.4394-1.7887 2.862-9.6592h1.0732v-1.7887h1.0732c0.14668-2.1801 2.4123-5.3948 4.6507-5.7239 0.7738-2.7239 4.713-5.53 7.5127-5.7239v-1.0732l8.2421-2.7403 11.786-0.083 9.6645 2.8233m-56.285-1.1924-0.11949 0.23826 0.11949-0.23826m-1.6696 4.0543-0.35774 0.35775 0.35774-0.35775m-44.003 0.71549 0.35775 0.35775-0.35775-0.35775m42.572 0.71549-0.35775 0.35775 0.35775-0.35775m-1.0732 0.71549-0.35775 0.35775 0.35775-0.35775m-13.594 2.5042h0.35775l0.71549-0.71549c-0.76558-0.39996-0.90402-0.0898-1.0732 0.71549m5.0084 0-1.0732-0.35775 1.0732 0.35775m1.0732 1.0732 0.35775 0.35775-0.35775-0.35775m8.9437 1.431 0.35775 0.35775-0.35775-0.35775m-7.1549 1.0732 0.35775 0.35775-0.35775-0.35775m10.613 3.1006-0.11949 0.23826 0.11949-0.23826m0.83462 0.83462-0.35774 0.35775 0.35774-0.35775m0.71549 1.0732-0.35774 0.35775 0.35774-0.35775m23.969 65.825c-0.96663-4.0132-0.82604-8.0861-1.1054-12.163-0.12843-1.8792-0.81208-4.0443 0.8475-5.4907 2.9686-2.5876 9.2585-1.4378 11.597-5.0235 1.3934-2.1365 1.4496-5.9668 1.8682-8.4464 1.172-6.941 2.1755-14.065 2.1755-21.107h4.6507c-0.54091-2.6573-2.5733-3.0072-5.0084-2.8298-4.7409 0.34594-9.5729 1.9966-14.31 2.6767-1.5945 0.22896-4.5026-0.15526-5.8212 0.87827-2.1626 1.6946-2.4527 8.5065-2.8112 11.08-1.4117 10.131-0.74054 20.411 1.2628 30.408 0.97558 4.8693 0.95125 10.017 6.6541 10.017m40.425-52.231v52.589h0.71549c0.0182-2.2141 0.26867-4.6901 0.99776-6.7954 0.21787-0.62892 0.79455-1.998 1.6961-1.461 1.9841 1.182 0.54127 6.4169 0.52589 8.2564h0.35775c0.24148-3.0594 0.28977-6.911 2.862-8.9437l0.35775 8.9437h5.0084c-7.2e-4 -5.4378-0.92227-11.966-2.5042-17.172 8.6389-3.6208 10.03-12.831 10.017-21.107-6e-3 -4.0243-0.64501-8.7476-3.6851-11.688-4.0418-3.9091-11.238-2.6219-16.349-2.6219m-19.676 0.35775c1.7798 7.7856 1.6846 17.036-2.8992 23.969-1.6013 2.4219-5.0246 3.9882-6.2187 6.4727-2.9532 6.1446-2.164 15.151-2.6878 21.789 2.188-1.6657 0.52303-5.6857 2.4051-7.7645 0.91512-1.0106 1.6768-9e-3 1.8349 0.97057 0.34845 2.1615 0.0912 4.66-0.3048 6.794h0.35775c0.61532-2.0774 0.058-6.5661 1.9655-8.0006 1.0371-0.78025 1.6353 0.79527 1.7955 1.5619 0.40103 1.9157-0.0916 4.5505-0.54127 6.4387 2.1322-1.7243 0.53161-5.6953 2.4051-7.7645 0.91511-1.0106 1.6768-9e-3 1.8349 0.97057 0.35631 2.2094-0.0279 4.602-0.3048 6.794h2.862v-18.961h7.8704v18.961h0.35775c0.12986-3.0272 0.34379-6.9535 2.862-8.9437l0.35775 8.9437h3.5775v-52.231h-7.1549v19.676h-8.2282v-19.676h-2.1465m-18.489 7.3706c6.2509-3.0723 8.8825 8.9272 3.8197 11.385-5.5225 2.6817-4.6489-3.4855-4.6489-6.95 0-1.1916-0.48832-3.7871 0.82926-4.435m43.889 14.452c0-2.5074-1.2013-9.251 0.36777-11.232 1.2392-1.5644 4.8389-0.29192 5.8381 0.93408 1.7898 2.1958 1.5465 8.0107-0.87719 9.6749-1.4489 0.99454-3.6608 0.6232-5.3286 0.6232m-128.07-8.9437v11.448h6.0817v2.5042h-9.6592v-13.952h3.5775m12.163 0v13.952h-3.5775v-13.952h3.5775m12.879 6.7972c2.4999 1.2335 2.945 4.8568 0.33807 6.3894-2.5761 1.5151-6.7671 0.76558-9.6395 0.76558v-13.952c4.6486 0 13.915-0.38207 9.3014 6.7972m-5.7239-4.293v2.862c4.0128-0.0143 4.0128-2.8477 0-2.862m0 5.3662v3.5775c4.9941-3e-3 4.9941-3.5742 0-3.5775m159.2 72.623 0.35774 0.35774z" fill="#027fbd"/>
 </g>
</svg>
